<svg xmlns="http://www.w3.org/2000/svg" viewBox="0 0 391.41 391.57">
  <defs>
    <style>
      .cls-1 {
        fill: #fff;
      }
    </style>
  </defs>
  <g id="Livello_2" data-name="Livello 2">
    <g id="Livello_1-2" data-name="Livello 1">
      <g>
        <path class="cls-1" d="M0,182.88c1-7.15,1.83-14.32,3.08-21.43A191,191,0,0,1,51.22,64C79.53,33,114.28,12.7,155.4,4.36c55-11.16,106.27-1,152.43,31.3,39.7,27.73,66.57,65.25,77.47,112.47,17.82,77.24-3.44,143.13-62.38,196.15-28.43,25.57-62.48,40-100.28,45.56-4.63.68-9.29,1.16-13.94,1.73h-26c-1.24-.25-2.46-.56-3.7-.74-7.92-1.13-15.94-1.74-23.74-3.42-41-8.86-75.81-28.75-104.09-59.72C25.71,299.8,9.49,267.21,3,229.9c-1.21-7-2-14-3-21ZM195.84,19.94c-97.1-.11-175.75,78.29-176.07,175.5S98,371.55,195.37,371.8s176.09-78.37,176.27-175.69S293.14,20.05,195.84,19.94Z"/>
        <path class="cls-1" d="M185.79,257.1v-5.37q0-69.73,0-139.45c0-6.52,3.83-11,9.44-11.19a9.94,9.94,0,0,1,10.35,9.5c.07,1.27,0,2.54,0,3.82V256.8c1.38-1.23,2.31-2,3.15-2.83,11.27-11.25,22.55-22.47,33.75-33.79,2.46-2.47,5.17-4.15,8.7-4a9.12,9.12,0,0,1,8.41,5.62,9.67,9.67,0,0,1-1.38,10.38,29.31,29.31,0,0,1-2.37,2.49Q230.22,260.38,204.54,286c-6.16,6.16-11.46,6.14-17.68-.07q-26-25.92-51.9-51.84c-2.66-2.65-4.47-5.59-4-9.43s2.52-6.72,6.22-8A9.67,9.67,0,0,1,147.75,219q11.52,11.43,23,22.93C175.49,246.73,180.22,251.5,185.79,257.1Z"/>
      </g>
    </g>
  </g>
</svg>
