<svg xmlns="http://www.w3.org/2000/svg" viewBox="0 0 263.68 144.01">
  <g id="Livello_2" data-name="Livello 2">
    <g id="Livello_1-2" data-name="Livello 1">
      <path d="M132.31,115.13A36.51,36.51,0,0,1,135,111.6Q188.31,58.26,241.63,4.93c2.82-2.83,5.81-5,10.07-4.88a11.45,11.45,0,0,1,10.53,6.52,11.37,11.37,0,0,1-1.05,12.66,30.71,30.71,0,0,1-3.3,3.55Q200.21,80.47,142.51,138.15c-7.81,7.82-13.57,7.81-21.37,0Q62.94,80,4.69,21.77C.93,18-1,13.85.51,8.66A11.94,11.94,0,0,1,20.32,3.37c4.83,4.51,9.4,9.3,14.07,14l94.73,94.72C129.91,112.86,130.73,113.61,132.31,115.13Z"/>
    </g>
  </g>
</svg>
