<svg xmlns="http://www.w3.org/2000/svg" viewBox="0 0 19.48 18.11">
  <defs>
    <style>
      .cls-1 {
        fill: #fff;
      }
    </style>
  </defs>
  <g id="Livello_2" data-name="Livello 2">
    <g id="Livello_1-2" data-name="Livello 1">
      <path class="cls-1" d="M9.81,14.52a2,2,0,0,1,.2-.25l6.87-6.88A1.5,1.5,0,0,1,19.4,8,1.46,1.46,0,0,1,19,9.53l-4,4.05-4,4a1.52,1.52,0,0,1-2.31,0L.48,9.42A1.46,1.46,0,0,1,.06,7.91a1.4,1.4,0,0,1,1.12-1,1.48,1.48,0,0,1,1.43.44L9,13.72Z"/>
      <path class="cls-1" d="M9.78,7.62A3.15,3.15,0,0,1,10,7.34Q13.45,3.91,16.89.46a1.49,1.49,0,0,1,2.5.57A1.47,1.47,0,0,1,19,2.61l-6,6-2,2a1.5,1.5,0,0,1-2.23,0L.57,2.59A1.48,1.48,0,0,1,.24.89,1.49,1.49,0,0,1,1.7,0a1.54,1.54,0,0,1,1,.5L9.59,7.36A3,3,0,0,1,9.78,7.62Z"/>
    </g>
  </g>
</svg>
