<svg xmlns="http://www.w3.org/2000/svg" viewBox="0 0 164.8 81.9">
  <defs>
    <style>
      .cls-1 {
        fill: #fff;
      }
    </style>
  </defs>
  <g id="Livello_2" data-name="Livello 2">
    <g id="Livello_1-2" data-name="Livello 1">
      <g>
        <path class="cls-1" d="M94.43,21.71c0,16.33-39.38,47-39.38,56.61,0,.67.45,1.12,1.34,1.12,6.94,0,22.38-15.89,34.69-27.75h3.13C81,63.55,68,81.9,53.48,81.9c-5.59,0-10.29-3.13-10.29-8.73,0-17.23,39.61-48.11,39.61-54.6,0-.89-.23-1.34-.9-1.34-4.92,0-21.48,12.09-29.54,22.15l-34,42.52H0L35.8,31.78c2.91-4,10.3-11.19,10.3-13.21,0-.89-.23-1.34-1.35-1.34-3.35,0-13.2,6-20.13,12.09-7.17,6.26-15,15-21.49,22.37H.22c13-14.77,31.33-38,50.8-38,4.25,0,6.27,3.13,6.27,7.38a27.79,27.79,0,0,1-3.58,13c7.83-8,21.93-20.36,32.44-20.36C91.08,13.65,94.43,16.78,94.43,21.71Z"/>
        <path class="cls-1" d="M161,.45A2.33,2.33,0,0,1,162.34,0a1.44,1.44,0,0,1,1.34,1.34A3,3,0,0,1,163,2.46a30,30,0,0,0-7.61,5.82c-4.47,4.48-5.15,21.71-5.15,34.46a35.69,35.69,0,0,1-7.6,22.6c6.49-4.92,12.75-10.52,19-15.89h3.13c-8.5,7.61-21,19.25-34.46,26.19-6.71,3.8-13.88,5.81-20.14,5.81-8.06,0-13.65-7.6-13.65-15.21,0-7.39,4.48-15.67,11.19-17.91C127.65,28.64,150.7,9.4,161,.45ZM111.77,47.66h.67c4.25,0,8.28,3.14,8.28,7.39,0,6.71-5.37,13-12.09,13-3.58,0-4.47-1.79-5.14-3.36-.45-1.12-.67-2.24-1.57-2.24-2.24,0-3.13,1.57-3.13,3.81,0,6.93,4,13,11,13,12.09,0,18.35-10.52,20.81-22.38,2.24-10.74,3.58-20.59,6.72-28a45.31,45.31,0,0,1,5.37-9.4Z"/>
      </g>
    </g>
  </g>
</svg>
