<svg xmlns="http://www.w3.org/2000/svg" viewBox="0 0 221.03 192.92">
  <defs>
    <style>
      .cls-1 {
        fill: #fff;
      }

      .cls-2 {
        fill: #010101;
      }
    </style>
  </defs>
  <g id="Livello_2" data-name="Livello 2">
    <g id="Livello_1-2" data-name="Livello 1">
      <rect class="cls-1" width="221.03" height="192.92"/>
      <g id="Livello_2-2" data-name="Livello 2">
        <g id="Livello_1-2-2" data-name="Livello 1-2">
          <g>
            <path class="cls-2" d="M49.29,90.72c0,6-14.53,17.33-14.53,20.88,0,.25.18.42.5.42,2.5,0,8.25-5.87,12.78-10.25h1.17c-4.75,4.28-9.75,11.15-15,11.15A3.38,3.38,0,0,1,30.41,110c0-.1,0-.2,0-.3,0-6.35,14.6-17.73,14.6-20,0-.33,0-.5-.33-.5-1.82,0-7.92,4.45-10.9,8.17l-12.5,15.68h-6.8l13.2-18.6c1.08-1.5,3.8-4.13,3.8-4.88,0-.32,0-.5-.5-.5a19.8,19.8,0,0,0-7.43,4.48,94.57,94.57,0,0,0-7.92,8.22H14.46c5-5.42,11.62-14,18.83-14,1.55,0,2.3,1.17,2.3,2.72a10.51,10.51,0,0,1-1.33,4.8c2.9-3,8.1-7.5,12-7.5a2.85,2.85,0,0,1,3,2.64C49.29,90.51,49.29,90.62,49.29,90.72Z"/>
            <path class="cls-2" d="M77.49,87.75h8L69.24,107.22c-2.28,2.8-2.73,3.3-2.73,3.83s.18.57.43.57c1.4,0,4.12-1.87,13.2-10h1.15C73.54,108.9,68.66,113,64.79,113A2.79,2.79,0,0,1,62,110.23a2.62,2.62,0,0,1,0-.28,6.56,6.56,0,0,1,1.23-4.13c-1.9,1.9-8,7.28-12,7.28a2.78,2.78,0,0,1-2.9-2.65,2.75,2.75,0,0,1,0-.5c0-2.73,1.4-5,5.35-9.83l6.88-8.32-11.2,10H48l15.75-14h8L55.54,107.22c-2.3,2.8-2.73,3.3-2.73,3.88s.18.57.43.57a13,13,0,0,0,5-2.87,67.91,67.91,0,0,0,7.5-6.68Z"/>
            <path class="cls-2" d="M113.64,88.17l-15.43,20c-1.42,1.8-1.82,2.5-1.82,3a.63.63,0,0,0,.57.65c1.4,0,6.6-3.3,13-10h1.15C105,108.4,99.36,113,95.81,113a2.83,2.83,0,0,1-3.14-2.47,3.77,3.77,0,0,1,0-.58A9.71,9.71,0,0,1,94,106.05c-2,2-7,7-10.3,7-1.9,0-3-1.65-3-3.8a18.86,18.86,0,0,1,4.45-10.9l-3.8,3.4H80.14a76.73,76.73,0,0,1,8-7.07c4.77-3.8,11.22-7,15-7a2.49,2.49,0,0,1,2.5,2.32l1.47-1.9Zm-17.5,14.35,7.92-10.3a8.81,8.81,0,0,0,.9-1.65,1.86,1.86,0,0,0-1.84-1.9H103c-3.48,0-19,19.63-19,22.78,0,.47.25.65.58.65C86.74,112.1,95,104.25,96.14,102.52Z"/>
            <path class="cls-2" d="M144.67,90.72c0,6-14.53,17.33-14.53,20.88,0,.25.15.42.48.42,2.5,0,8.25-5.87,12.8-10.25h1.05c-4.88,4.38-9.65,11.15-15,11.15a3.38,3.38,0,0,1-3.78-2.92c0-.1,0-.2,0-.3,0-6.35,14.6-17.73,14.6-20,0-.33,0-.5-.33-.5-1.82,0-7.92,4.45-10.9,8.17l-12.5,15.68h-6.75L123,94.57c1.13-1.62,4-4.25,4-5,0-.32,0-.5-.5-.5a19.47,19.47,0,0,0-7.5,4.45,93.58,93.58,0,0,0-7.93,8.25H110c4.78-5.42,11.56-14,18.73-14,1.58,0,2.33,1.17,2.33,2.72a10.51,10.51,0,0,1-1.33,4.8c2.88-3,8.08-7.5,11.95-7.5a2.85,2.85,0,0,1,3,2.67A2.62,2.62,0,0,1,144.67,90.72Z"/>
            <path class="cls-2" d="M143.42,101.77c8.32-8.5,17.65-14,23.25-14a2.84,2.84,0,0,1,2.81,2.88,2.44,2.44,0,0,1,0,.27c0,2.5-1.65,4.7-3.38,4.7a2.08,2.08,0,0,1-1.62-2,3.26,3.26,0,0,1,3.12-3.2c.68-.18,1-.35,1-.83s-.92-1-1.82-1c-1.73,0-6.2,3.55-11.88,10.72-5.2,6.4-7.92,10.1-7.92,11.35a1.47,1.47,0,0,0,1.47,1.48h0c3.48,0,7.5-2.9,15-10.33h1.15c-8.32,8.43-12.5,11.33-16.65,11.33-3.3,0-4-3.4-4-5.78,0-3.07,1.32-5.37,4.55-9.17-.73.57-3.3,2.9-4.05,3.62Z"/>
            <path class="cls-2" d="M188.54,87.75a3.33,3.33,0,0,1,3.43,3c0,4.72-10.4,8.42-17.35,9.82a57,57,0,0,0-6.88,10.43c0,.5.58,1,1.4,1,4.13,0,12.05-5.88,16.68-10.25H187c-4.78,4.55-12.5,11.15-18.55,11.15a4.45,4.45,0,0,1-4.3-4.6v0c0-4,4-9.65,8.25-13-2.5,1.9-5,4.2-7.68,6.5h-1.15C167.92,97.65,178.14,87.75,188.54,87.75Zm-.9,1.82a.71.71,0,0,0-.6-.82.41.41,0,0,0-.22,0c-2.08,0-6.78,5.12-11,10.4C179.72,98.9,187.64,93,187.64,89.57Z"/>
            <path class="cls-2" d="M206.37,83.72a.77.77,0,0,1,.6-.18.55.55,0,0,1,.48.51,1,1,0,0,1-.25.4,11.73,11.73,0,0,0-2.81,2.15c-1.65,1.65-1.9,8-1.9,12.7a13.23,13.23,0,0,1-2.8,8.35c2.5-1.83,4.7-3.88,7-5.88h1.15a66,66,0,0,1-12.7,9.68,15.59,15.59,0,0,1-7.5,2.12,5.39,5.39,0,0,1-5-5.6,7.08,7.08,0,0,1,4.05-6.6C194.07,94.1,202.57,87,206.37,83.72Zm-18.15,17.33h.25a3,3,0,0,1,3.05,2.72,4.73,4.73,0,0,1-4.55,4.78,1.78,1.78,0,0,1-1.9-1.23c-.15-.42-.23-.82-.58-.82-.82,0-1.15.57-1.15,1.4a4.31,4.31,0,0,0,3.8,4.75l.25,0c4.45,0,6.78-3.87,7.68-8.25a61.87,61.87,0,0,1,2.5-10.3,17.45,17.45,0,0,1,2-3.47Z"/>
          </g>
        </g>
      </g>
    </g>
  </g>
</svg>
