<svg xmlns="http://www.w3.org/2000/svg" viewBox="0 0 185.33 259.22">
  <defs>
    <style>
      .cls-1 {
        fill: #fff;
      }
    </style>
  </defs>
  <g id="Livello_2" data-name="Livello 2">
    <g id="Livello_1-2" data-name="Livello 1">
      <path class="cls-1" d="M64.78,129.84q0,50.29,0,100.58C64.78,247.2,52.85,259.16,36,259c-5.45,0-11.08,0-16.31-1.27C8.18,254.9,0,243.74,0,231.86Q0,129.55,0,27.22A27.51,27.51,0,0,1,27.34,0c5,0,10.08-.24,15,.58a27.13,27.13,0,0,1,22.46,26.9Q64.82,78.67,64.78,129.84Z"/>
      <path class="cls-1" d="M185.1,129.85c0,32.66-.57,65.34.22,98,.44,18.16-12.74,32.95-31.62,31.25-4.58-.41-9.32-.15-13.71-1.29-11.49-3-19.65-14.05-19.66-25.94q0-102.33,0-204.65A27.52,27.52,0,0,1,147.38,0c5.09,0,10.27-.24,15.26.58a27.14,27.14,0,0,1,22.44,26.91Q185.14,78.69,185.1,129.85Z"/>
    </g>
  </g>
</svg>
