<svg xmlns="http://www.w3.org/2000/svg" viewBox="0 0 351.59 351.38">
  <defs>
    <style>
      .cls-1 {
        fill: #fff;
      }
    </style>
  </defs>
  <g id="Livello_2" data-name="Livello 2">
    <g id="Livello_1-2" data-name="Livello 1">
      <path class="cls-1" d="M0,175.67q0-61.54,0-123.1c0-23.21,14.44-43,36.24-50C50.28-2,63.73-.34,76.79,6.21q58,29.1,116.16,58.05,63.74,31.84,127.48,63.65c15.3,7.59,25.73,19.12,29.7,35.82,5.62,23.7-5.27,47.24-27.17,58.34-35,17.77-70.25,35.21-105.39,52.77Q147.15,310,76.71,345.22c-22.68,11.3-47.16,6.85-63.63-11.57-8.93-10-13-21.92-13-35.26Q0,237,0,175.67Z"/>
    </g>
  </g>
</svg>
